<svg width="19" height="22" viewBox="0 0 19 22" fill="none" xmlns="http://www.w3.org/2000/svg">
<path d="M17 9V5.8C17 4.11984 17 3.27976 16.673 2.63803C16.3854 2.07354 15.9265 1.6146 15.362 1.32698C14.7202 1 13.8802 1 12.2 1H5.8C4.11984 1 3.27976 1 2.63803 1.32698C2.07354 1.6146 1.6146 2.07354 1.32698 2.63803C1 3.27976 1 4.11984 1 5.8V16.2C1 17.8802 1 18.7202 1.32698 19.362C1.6146 19.9265 2.07354 20.3854 2.63803 20.673C3.27976 21 4.11984 21 5.8 21H7.5M10 10H5M8 14H5M13 6H5M16.25 16V14.25C16.25 13.2835 15.4665 12.5 14.5 12.5C13.5335 12.5 12.75 13.2835 12.75 14.25V16M12.6 20H16.4C16.9601 20 17.2401 20 17.454 19.891C17.6422 19.7951 17.7951 19.6422 17.891 19.454C18 19.2401 18 18.9601 18 18.4V17.6C18 17.0399 18 16.7599 17.891 16.546C17.7951 16.3578 17.6422 16.2049 17.454 16.109C17.2401 16 16.9601 16 16.4 16H12.6C12.0399 16 11.7599 16 11.546 16.109C11.3578 16.2049 11.2049 16.3578 11.109 16.546C11 16.7599 11 17.0399 11 17.6V18.4C11 18.9601 11 19.2401 11.109 19.454C11.2049 19.6422 11.3578 19.7951 11.546 19.891C11.7599 20 12.0399 20 12.6 20Z" stroke="#242B3A" stroke-width="2" stroke-linecap="round" stroke-linejoin="round"/>
</svg>
