<svg width="22" height="19" viewBox="0 0 22 19" fill="none" xmlns="http://www.w3.org/2000/svg">
<path d="M21 18L19.5 16.5M21 6H1M21 8V4.2C21 3.0799 21 2.51984 20.782 2.09202C20.5903 1.7157 20.2843 1.40974 19.908 1.21799C19.4802 1 18.9201 1 17.8 1H4.2C3.0799 1 2.51984 1 2.09202 1.21799C1.7157 1.40973 1.40973 1.71569 1.21799 2.09202C1 2.51984 1 3.0799 1 4.2V11.8C1 12.9201 1 13.4802 1.21799 13.908C1.40973 14.2843 1.71569 14.5903 2.09202 14.782C2.51984 15 3.0799 15 4.2 15H9.5M20.5 14C20.5 15.933 18.933 17.5 17 17.5C15.067 17.5 13.5 15.933 13.5 14C13.5 12.067 15.067 10.5 17 10.5C18.933 10.5 20.5 12.067 20.5 14Z" stroke="#242B3A" stroke-width="2" stroke-linecap="round" stroke-linejoin="round"/>
</svg>
