<svg width="20" height="20" viewBox="0 0 20 20" fill="none" xmlns="http://www.w3.org/2000/svg">
<path d="M19 7L12.5515 11.6061C12.3555 11.746 12.2576 11.816 12.1527 11.8371C12.0602 11.8557 11.9643 11.8478 11.8762 11.8142C11.7762 11.7762 11.691 11.691 11.5208 11.5208L8.47921 8.47921C8.30896 8.30896 8.22383 8.22383 8.12382 8.18577C8.03566 8.15221 7.9398 8.14427 7.84732 8.16288C7.74241 8.18399 7.64445 8.25396 7.44853 8.39391L1 13M5.8 19H14.2C15.8802 19 16.7202 19 17.362 18.673C17.9265 18.3854 18.3854 17.9265 18.673 17.362C19 16.7202 19 15.8802 19 14.2V5.8C19 4.11984 19 3.27976 18.673 2.63803C18.3854 2.07354 17.9265 1.6146 17.362 1.32698C16.7202 1 15.8802 1 14.2 1H5.8C4.11984 1 3.27976 1 2.63803 1.32698C2.07354 1.6146 1.6146 2.07354 1.32698 2.63803C1 3.27976 1 4.11984 1 5.8V14.2C1 15.8802 1 16.7202 1.32698 17.362C1.6146 17.9265 2.07354 18.3854 2.63803 18.673C3.27976 19 4.11984 19 5.8 19Z" stroke="#242B3A" stroke-width="2" stroke-linecap="round" stroke-linejoin="round"/>
</svg>
