<svg width="22" height="21" viewBox="0 0 22 21" fill="none" xmlns="http://www.w3.org/2000/svg">
<path d="M1.50047 12H7.50047M14.5005 12H20.5005M11.0005 6V20M11.0005 6C12.3812 6 13.5005 4.88071 13.5005 3.5M11.0005 6C9.61976 6 8.50047 4.88071 8.50047 3.5M3.00047 20L19.0005 20M3.00047 3.50001L8.50047 3.5M8.50047 3.5C8.50047 2.11929 9.61976 1 11.0005 1C12.3812 1 13.5005 2.11929 13.5005 3.5M13.5005 3.5L19.0005 3.5M7.88091 13.3364C7.48022 14.8706 6.11858 16 4.50047 16C2.88237 16 1.52073 14.8706 1.12004 13.3364C1.0873 13.211 1.07093 13.1483 1.06935 12.8979C1.06838 12.7443 1.12544 12.3904 1.17459 12.2449C1.25478 12.0076 1.34158 11.8737 1.51519 11.6059L4.50047 7L7.48576 11.6059C7.65937 11.8737 7.74617 12.0076 7.82636 12.2449C7.87551 12.3904 7.93257 12.7443 7.9316 12.8979C7.93002 13.1483 7.91365 13.211 7.88091 13.3364ZM20.8809 13.3364C20.4802 14.8706 19.1186 16 17.5005 16C15.8824 16 14.5207 14.8706 14.12 13.3364C14.0873 13.211 14.0709 13.1483 14.0693 12.8979C14.0684 12.7443 14.1254 12.3904 14.1746 12.2449C14.2548 12.0076 14.3416 11.8737 14.5152 11.6059L17.5005 7L20.4858 11.6059C20.6594 11.8737 20.7462 12.0076 20.8264 12.2449C20.8755 12.3904 20.9326 12.7443 20.9316 12.8979C20.93 13.1483 20.9137 13.211 20.8809 13.3364Z" stroke="#242B3A" stroke-width="2" stroke-linecap="round" stroke-linejoin="round"/>
</svg>
