<svg width="23" height="20" viewBox="0 0 23 20" fill="none" xmlns="http://www.w3.org/2000/svg">
<path d="M12.3335 5L11.218 2.76892C10.8969 2.1268 10.7364 1.80573 10.4969 1.57116C10.2851 1.36373 10.0298 1.20597 9.74957 1.10931C9.43266 1 9.0737 1 8.35579 1H4.5335C3.41339 1 2.85334 1 2.42552 1.21799C2.04919 1.40973 1.74323 1.71569 1.55148 2.09202C1.3335 2.51984 1.3335 3.0799 1.3335 4.2V5M1.3335 5H16.5335C18.2137 5 19.0537 5 19.6955 5.32698C20.26 5.6146 20.7189 6.07354 21.0065 6.63803C21.3335 7.27976 21.3335 8.11984 21.3335 9.8V14.2C21.3335 15.8802 21.3335 16.7202 21.0065 17.362C20.7189 17.9265 20.26 18.3854 19.6955 18.673C19.0537 19 18.2137 19 16.5335 19H6.1335C4.45334 19 3.61326 19 2.97152 18.673C2.40704 18.3854 1.9481 17.9265 1.66048 17.362C1.3335 16.7202 1.3335 15.8802 1.3335 14.2V5ZM8.3335 12L10.3335 14L14.8335 9.5" stroke="#242B3A" stroke-width="2" stroke-linecap="round" stroke-linejoin="round"/>
</svg>
