<svg width="23" height="22" viewBox="0 0 23 22" fill="none" xmlns="http://www.w3.org/2000/svg">
<path d="M4.16675 21V16M4.16675 6V1M1.66675 3.5H6.66675M1.66675 18.5H6.66675M12.6667 2L10.9326 6.50886C10.6506 7.24209 10.5096 7.60871 10.2903 7.91709C10.0959 8.1904 9.85715 8.42919 9.58383 8.62353C9.27545 8.84281 8.90884 8.98381 8.17561 9.26582L3.66675 11L8.17561 12.7342C8.90884 13.0162 9.27546 13.1572 9.58383 13.3765C9.85715 13.5708 10.0959 13.8096 10.2903 14.0829C10.5096 14.3913 10.6506 14.7579 10.9326 15.4911L12.6667 20L14.4009 15.4911C14.6829 14.7579 14.8239 14.3913 15.0432 14.0829C15.2376 13.8096 15.4764 13.5708 15.7497 13.3765C16.058 13.1572 16.4247 13.0162 17.1579 12.7342L21.6667 11L17.1579 9.26582C16.4247 8.98381 16.058 8.8428 15.7497 8.62353C15.4764 8.42919 15.2376 8.1904 15.0432 7.91709C14.8239 7.60871 14.6829 7.24209 14.4009 6.50886L12.6667 2Z" stroke="#242B3A" stroke-width="2" stroke-linecap="round" stroke-linejoin="round"/>
</svg>
