<svg width="21" height="20" viewBox="0 0 21 20" fill="none" xmlns="http://www.w3.org/2000/svg">
<path d="M15.8335 4.5L4.8335 15.5M6.8335 8.5V4.5M4.8335 6.5H8.8335M11.8335 13.5H15.8335M6.1335 19H14.5335C16.2137 19 17.0537 19 17.6955 18.673C18.26 18.3854 18.7189 17.9265 19.0065 17.362C19.3335 16.7202 19.3335 15.8802 19.3335 14.2V5.8C19.3335 4.11984 19.3335 3.27976 19.0065 2.63803C18.7189 2.07354 18.26 1.6146 17.6955 1.32698C17.0537 1 16.2137 1 14.5335 1H6.1335C4.45334 1 3.61326 1 2.97152 1.32698C2.40704 1.6146 1.9481 2.07354 1.66048 2.63803C1.3335 3.27976 1.3335 4.11984 1.3335 5.8V14.2C1.3335 15.8802 1.3335 16.7202 1.66048 17.362C1.9481 17.9265 2.40704 18.3854 2.97152 18.673C3.61326 19 4.45334 19 6.1335 19Z" stroke="#242B3A" stroke-width="2" stroke-linecap="round" stroke-linejoin="round"/>
</svg>
