<svg width="23" height="22" viewBox="0 0 23 22" fill="none" xmlns="http://www.w3.org/2000/svg">
<path d="M15.6665 6.99999V12C15.6665 12.7956 15.9826 13.5587 16.5452 14.1213C17.1078 14.6839 17.8709 15 18.6665 15C19.4622 15 20.2252 14.6839 20.7878 14.1213C21.3504 13.5587 21.6665 12.7956 21.6665 12V11C21.6664 8.74302 20.9027 6.55247 19.4998 4.78452C18.0968 3.01658 16.1371 1.77521 13.9392 1.26229C11.7412 0.749359 9.43445 0.995031 7.39386 1.95936C5.35328 2.92368 3.69891 4.54995 2.69977 6.57371C1.70063 8.59748 1.41548 10.8997 1.89068 13.1061C2.36588 15.3125 3.57349 17.2932 5.31714 18.7263C7.0608 20.1593 9.23795 20.9603 11.4946 20.9991C13.7512 21.0379 15.9546 20.3122 17.7465 18.94M15.6665 11C15.6665 13.2091 13.8757 15 11.6665 15C9.45738 15 7.66652 13.2091 7.66652 11C7.66652 8.79085 9.45738 6.99999 11.6665 6.99999C13.8757 6.99999 15.6665 8.79085 15.6665 11Z" stroke="#242B3A" stroke-width="2" stroke-linecap="round" stroke-linejoin="round"/>
</svg>
