<svg width="128" height="48" viewBox="0 0 128 48" fill="none" xmlns="http://www.w3.org/2000/svg">
<path d="M4.49213 17.9835C1.16929 21.3063 1.16929 26.6937 4.49212 30.0165L14.5027 40.0271L27.5143 27.0155C29.1757 25.3541 29.1757 22.6604 27.5143 20.999L14.4955 7.98014L4.49213 17.9835Z" fill="#3D38E7"/>
<path d="M17.5037 4.97188L30.5225 17.9907C33.8454 21.3135 33.8454 26.7009 30.5225 30.0237L17.5109 43.0353L17.9835 43.5079C21.3063 46.8307 26.6937 46.8307 30.0165 43.5079L43.5079 30.0165C46.8307 26.6937 46.8307 21.3063 43.5079 17.9835L30.0165 4.49213C26.6937 1.16929 21.3063 1.16929 17.9835 4.49212L17.5037 4.97188Z" fill="#3D38E7"/>
<path d="M58.3068 16.75V21.8128H56V8.18717H61.0787C62.5619 8.18717 63.7381 8.58333 64.6073 9.37567C65.4826 10.168 65.9203 11.2161 65.9203 12.5201C65.9203 13.8552 65.4917 14.8939 64.6347 15.6364C63.7837 16.3788 62.5892 16.75 61.0513 16.75H58.3068ZM58.3068 14.8503H61.0787C61.8993 14.8503 62.5254 14.6537 62.957 14.2607C63.3885 13.8614 63.6043 13.2874 63.6043 12.5388C63.6043 11.8026 63.3855 11.2161 62.9478 10.7794C62.5102 10.3365 61.9084 10.1087 61.1425 10.0963H58.3068V14.8503Z" fill="#242B3A"/>
<path d="M73.3827 16.5628H70.8115V21.8128H68.5047V8.18717H73.173C74.7048 8.18717 75.8871 8.53966 76.7199 9.24465C77.5527 9.94964 77.9691 10.9697 77.9691 12.3048C77.9691 13.2157 77.7533 13.9799 77.3217 14.5976C76.8962 15.209 76.3005 15.68 75.5346 16.0107L78.5161 21.6912V21.8128H76.0452L73.3827 16.5628ZM70.8115 14.6631H73.1821C73.9602 14.6631 74.5681 14.4635 75.0057 14.0642C75.4434 13.6586 75.6622 13.1065 75.6622 12.4078C75.6622 11.6778 75.4586 11.1132 75.0513 10.7139C74.6501 10.3146 74.0484 10.1087 73.246 10.0963H70.8115V14.6631Z" fill="#242B3A"/>
<path d="M83.152 21.8128H80.8543V8.18717H83.152V21.8128Z" fill="#242B3A"/>
<path d="M93.4866 18.3035C93.4866 17.7045 93.28 17.2429 92.8666 16.9184C92.4594 16.594 91.7208 16.2665 90.651 15.9358C89.5811 15.6052 88.7301 15.2371 88.098 14.8316C86.8883 14.0517 86.2835 13.0348 86.2835 11.7807C86.2835 10.6827 86.7181 9.77807 87.5874 9.06684C88.4627 8.35561 89.5963 8 90.9883 8C91.9123 8 92.7359 8.17469 93.4593 8.52406C94.1826 8.87344 94.751 9.37255 95.1643 10.0214C95.5777 10.664 95.7844 11.3783 95.7844 12.1644H93.4866C93.4866 11.4532 93.2678 10.898 92.8302 10.4987C92.3986 10.0931 91.7785 9.89037 90.9701 9.89037C90.2164 9.89037 89.6298 10.0557 89.2103 10.3864C88.797 10.717 88.5903 11.1787 88.5903 11.7714C88.5903 12.2705 88.8152 12.6885 89.265 13.0254C89.7149 13.3561 90.4565 13.6805 91.4898 13.9987C92.5232 14.3106 93.3529 14.6693 93.979 15.0749C94.6051 15.4742 95.064 15.9358 95.3558 16.4599C95.6476 16.9777 95.7935 17.586 95.7935 18.2848C95.7935 19.4202 95.368 20.3249 94.517 20.9987C93.672 21.6662 92.5232 22 91.0704 22C90.11 22 89.2255 21.8191 88.4171 21.4572C87.6147 21.0891 86.9886 20.5838 86.5388 19.9412C86.0951 19.2986 85.8732 18.5499 85.8732 17.6952H88.18C88.18 18.4688 88.4292 19.0677 88.9277 19.492C89.4261 19.9162 90.1404 20.1283 91.0704 20.1283C91.8728 20.1283 92.4746 19.963 92.8757 19.6324C93.283 19.2955 93.4866 18.8525 93.4866 18.3035Z" fill="#242B3A"/>
<path d="M101.369 8.18717L105.198 18.631L109.018 8.18717H112V21.8128H109.702V17.3209L109.93 11.3128L106.01 21.8128H104.359L100.448 11.3222L100.676 17.3209V21.8128H98.3778V8.18717H101.369Z" fill="#242B3A"/>
<path d="M59.09 33.6746C58.8901 33.6476 58.7139 33.6341 58.5615 33.6341C58.0058 33.6341 57.6416 33.8216 57.4688 34.1967V37.7851H56V32.3011H57.3875L57.4281 32.9549C57.7229 32.4514 58.1312 32.1997 58.6529 32.1997C58.8156 32.1997 58.968 32.2217 59.1103 32.2656L59.09 33.6746Z" fill="#242B3A"/>
<path d="M62.1843 37.7851H60.7104V32.3011H62.1843V37.7851ZM60.624 30.8819C60.624 30.6623 60.6969 30.4815 60.8426 30.3396C60.9917 30.1977 61.1933 30.1267 61.4474 30.1267C61.6981 30.1267 61.898 30.1977 62.0471 30.3396C62.1962 30.4815 62.2707 30.6623 62.2707 30.8819C62.2707 31.1049 62.1945 31.2874 62.042 31.4293C61.8929 31.5712 61.6947 31.6422 61.4474 31.6422C61.2 31.6422 61.0001 31.5712 60.8477 31.4293C60.6986 31.2874 60.624 31.1049 60.624 30.8819Z" fill="#242B3A"/>
<path d="M67.2098 36.2696C67.2098 36.0906 67.1201 35.9503 66.9405 35.849C66.7643 35.7442 66.4797 35.6513 66.0867 35.5702C64.7788 35.2965 64.1249 34.7424 64.1249 33.9078C64.1249 33.4212 64.3265 33.0157 64.7297 32.6913C65.1363 32.3636 65.6665 32.1997 66.3204 32.1997C67.0184 32.1997 67.5758 32.3636 67.9925 32.6913C68.4126 33.0191 68.6227 33.4448 68.6227 33.9686H67.1539C67.1539 33.7591 67.0862 33.5868 66.9506 33.4516C66.8151 33.3131 66.6034 33.2438 66.3154 33.2438C66.068 33.2438 65.8766 33.2995 65.7411 33.411C65.6055 33.5226 65.5378 33.6645 65.5378 33.8368C65.5378 33.999 65.614 34.1308 65.7665 34.2321C65.9223 34.3301 66.1832 34.4163 66.5492 34.4906C66.9151 34.5616 67.2234 34.6427 67.4741 34.7339C68.25 35.0177 68.638 35.5094 68.638 36.2088C68.638 36.7089 68.4228 37.1144 67.9925 37.4252C67.5622 37.7327 67.0066 37.8865 66.3255 37.8865C65.8647 37.8865 65.4548 37.8054 65.0956 37.6432C64.7399 37.4776 64.4603 37.2529 64.2571 36.9691C64.0538 36.6819 63.9521 36.3727 63.9521 36.0416H65.3447C65.3582 36.3017 65.4548 36.5011 65.6343 36.6396C65.8139 36.7782 66.0545 36.8474 66.356 36.8474C66.6372 36.8474 66.849 36.7951 66.9913 36.6903C67.137 36.5822 67.2098 36.442 67.2098 36.2696Z" fill="#242B3A"/>
<path d="M72.4184 35.5854L71.8898 36.1125V37.7851H70.421V30H71.8898V34.3132L72.1744 33.9483L73.5822 32.3011H75.3457L73.3586 34.5869L75.5185 37.7851H73.8312L72.4184 35.5854Z" fill="#242B3A"/>
<path d="M83.4249 37.7851C83.3571 37.6533 83.308 37.4894 83.2775 37.2935C82.9218 37.6888 82.4593 37.8865 81.8901 37.8865C81.3513 37.8865 80.9041 37.731 80.5483 37.4202C80.196 37.1093 80.0198 36.7174 80.0198 36.2443C80.0198 35.6631 80.2349 35.2171 80.6652 34.9062C81.0989 34.5954 81.724 34.4383 82.5406 34.4349H83.2165V34.1206C83.2165 33.8672 83.1505 33.6645 83.0183 33.5124C82.8896 33.3604 82.6846 33.2843 82.4034 33.2843C82.156 33.2843 81.9612 33.3435 81.8189 33.4617C81.68 33.58 81.6105 33.7422 81.6105 33.9483H80.1418C80.1418 33.6307 80.24 33.3367 80.4365 33.0664C80.633 32.7961 80.9109 32.5849 81.27 32.4328C81.6292 32.2774 82.0324 32.1997 82.4796 32.1997C83.1572 32.1997 83.6943 32.3703 84.0907 32.7116C84.4905 33.0495 84.6904 33.5259 84.6904 34.1409V36.518C84.6938 37.0384 84.7666 37.432 84.9089 37.6989V37.7851H83.4249ZM82.2102 36.7663C82.4271 36.7663 82.627 36.719 82.8099 36.6244C82.9929 36.5264 83.1284 36.3964 83.2165 36.2342V35.2914H82.6676C81.9324 35.2914 81.5411 35.5449 81.4936 36.0517L81.4886 36.1379C81.4886 36.3203 81.5529 36.4707 81.6817 36.589C81.8104 36.7072 81.9866 36.7663 82.2102 36.7663Z" fill="#242B3A"/>
<path d="M88.0032 32.3011L88.0489 32.9346C88.442 32.4447 88.9688 32.1997 89.6295 32.1997C90.2123 32.1997 90.646 32.3703 90.9306 32.7116C91.2152 33.0529 91.3609 33.5631 91.3677 34.2423V37.7851H89.8989V34.2778C89.8989 33.9669 89.8311 33.7422 89.6956 33.6036C89.5601 33.4617 89.3348 33.3908 89.0197 33.3908C88.6063 33.3908 88.2963 33.5665 88.0896 33.9179V37.7851H86.6208V32.3011H88.0032Z" fill="#242B3A"/>
<path d="M96.505 37.7851C96.4373 37.6533 96.3881 37.4894 96.3576 37.2935C96.0019 37.6888 95.5394 37.8865 94.9702 37.8865C94.4315 37.8865 93.9842 37.731 93.6285 37.4202C93.2761 37.1093 93.0999 36.7174 93.0999 36.2443C93.0999 35.6631 93.3151 35.2171 93.7453 34.9062C94.179 34.5954 94.8042 34.4383 95.6207 34.4349H96.2966V34.1206C96.2966 33.8672 96.2306 33.6645 96.0984 33.5124C95.9697 33.3604 95.7647 33.2843 95.4835 33.2843C95.2361 33.2843 95.0413 33.3435 94.899 33.4617C94.7601 33.58 94.6907 33.7422 94.6907 33.9483H93.2219C93.2219 33.6307 93.3201 33.3367 93.5166 33.0664C93.7132 32.7961 93.991 32.5849 94.3501 32.4328C94.7093 32.2774 95.1125 32.1997 95.5597 32.1997C96.2374 32.1997 96.7744 32.3703 97.1708 32.7116C97.5706 33.0495 97.7705 33.5259 97.7705 34.1409V36.518C97.7739 37.0384 97.8467 37.432 97.989 37.6989V37.7851H96.505ZM95.2904 36.7663C95.5072 36.7663 95.7071 36.719 95.8901 36.6244C96.073 36.5264 96.2086 36.3964 96.2966 36.2342V35.2914H95.7478C95.0125 35.2914 94.6212 35.5449 94.5738 36.0517L94.5687 36.1379C94.5687 36.3203 94.6331 36.4707 94.7618 36.589C94.8906 36.7072 95.0667 36.7663 95.2904 36.7663Z" fill="#242B3A"/>
<path d="M101.282 37.7851H99.8077V30H101.282V37.7851Z" fill="#242B3A"/>
<path d="M105.382 35.7121L106.399 32.3011H107.974L105.763 38.6366L105.641 38.9255C105.313 39.6418 104.771 40 104.015 40C103.802 40 103.585 39.9679 103.364 39.9037V38.7937L103.588 38.7988C103.866 38.7988 104.073 38.7565 104.208 38.6721C104.347 38.5876 104.455 38.4474 104.533 38.2514L104.706 37.8003L102.78 32.3011H104.361L105.382 35.7121Z" fill="#242B3A"/>
<path d="M111.145 30.9529V32.3011H112.085V33.3756H111.145V36.1125C111.145 36.3153 111.184 36.4606 111.261 36.5484C111.339 36.6363 111.488 36.6802 111.709 36.6802C111.871 36.6802 112.015 36.6684 112.141 36.6447V37.7547C111.853 37.8425 111.556 37.8865 111.251 37.8865C110.221 37.8865 109.696 37.3678 109.676 36.3305V33.3756H108.873V32.3011H109.676V30.9529H111.145Z" fill="#242B3A"/>
<path d="M115.286 37.7851H113.812V32.3011H115.286V37.7851ZM113.726 30.8819C113.726 30.6623 113.798 30.4815 113.944 30.3396C114.093 30.1977 114.295 30.1267 114.549 30.1267C114.8 30.1267 115 30.1977 115.149 30.3396C115.298 30.4815 115.372 30.6623 115.372 30.8819C115.372 31.1049 115.296 31.2874 115.144 31.4293C114.994 31.5712 114.796 31.6422 114.549 31.6422C114.302 31.6422 114.102 31.5712 113.949 31.4293C113.8 31.2874 113.726 31.1049 113.726 30.8819Z" fill="#242B3A"/>
<path d="M119.62 36.7055C119.891 36.7055 120.111 36.6312 120.281 36.4825C120.45 36.3338 120.538 36.1362 120.545 35.8895H121.922C121.919 36.2612 121.817 36.6025 121.617 36.9133C121.418 37.2208 121.143 37.4607 120.794 37.633C120.449 37.802 120.066 37.8865 119.646 37.8865C118.86 37.8865 118.239 37.6381 117.785 37.1414C117.331 36.6413 117.104 35.952 117.104 35.0735V34.9772C117.104 34.1325 117.33 33.4584 117.78 32.9549C118.231 32.4514 118.849 32.1997 119.635 32.1997C120.323 32.1997 120.874 32.3957 121.287 32.7876C121.704 33.1762 121.916 33.6949 121.922 34.3436H120.545C120.538 34.0598 120.45 33.83 120.281 33.6543C120.111 33.4752 119.888 33.3857 119.61 33.3857C119.268 33.3857 119.009 33.5107 118.832 33.7608C118.66 34.0074 118.573 34.4095 118.573 34.9671V35.1191C118.573 35.6834 118.66 36.0889 118.832 36.3355C119.005 36.5822 119.268 36.7055 119.62 36.7055Z" fill="#242B3A"/>
<path d="M126.572 36.2696C126.572 36.0906 126.482 35.9503 126.303 35.849C126.126 35.7442 125.842 35.6513 125.449 35.5702C124.141 35.2965 123.487 34.7424 123.487 33.9078C123.487 33.4212 123.689 33.0157 124.092 32.6913C124.498 32.3636 125.029 32.1997 125.682 32.1997C126.38 32.1997 126.938 32.3636 127.355 32.6913C127.775 33.0191 127.985 33.4448 127.985 33.9686H126.516C126.516 33.7591 126.448 33.5868 126.313 33.4516C126.177 33.3131 125.965 33.2438 125.677 33.2438C125.43 33.2438 125.239 33.2995 125.103 33.411C124.968 33.5226 124.9 33.6645 124.9 33.8368C124.9 33.999 124.976 34.1308 125.129 34.2321C125.284 34.3301 125.545 34.4163 125.911 34.4906C126.277 34.5616 126.585 34.6427 126.836 34.7339C127.612 35.0177 128 35.5094 128 36.2088C128 36.7089 127.785 37.1144 127.355 37.4252C126.924 37.7327 126.369 37.8865 125.688 37.8865C125.227 37.8865 124.817 37.8054 124.458 37.6432C124.102 37.4776 123.822 37.2529 123.619 36.9691C123.416 36.6819 123.314 36.3727 123.314 36.0416H124.707C124.72 36.3017 124.817 36.5011 124.996 36.6396C125.176 36.7782 125.417 36.8474 125.718 36.8474C125.999 36.8474 126.211 36.7951 126.353 36.6903C126.499 36.5822 126.572 36.442 126.572 36.2696Z" fill="#242B3A"/>
</svg>
