<svg width="33" height="33" viewBox="0 0 33 33" fill="none" xmlns="http://www.w3.org/2000/svg">
<path d="M16.5 31.9999C25.0604 31.9999 32 25.0604 32 16.5C32 7.93958 25.0604 1 16.5 1C7.9396 1 1 7.93958 1 16.5C1 25.0604 7.9396 31.9999 16.5 31.9999Z" stroke="#242B3A" stroke-miterlimit="10"/>
<path d="M16.5 16.5C25.9374 18.262 23.7274 30.208 23.7274 30.208" stroke="#242B3A" stroke-miterlimit="10"/>
<path d="M16.5 16.501C22.7418 9.21382 32 17.0983 32 17.0983" stroke="#242B3A" stroke-miterlimit="10"/>
<path d="M16.4998 16.5014C13.3042 7.45229 24.7725 3.39062 24.7725 3.39062" stroke="#242B3A" stroke-miterlimit="10"/>
<path d="M16.5 16.501C7.06271 14.739 9.27269 2.79297 9.27269 2.79297" stroke="#242B3A" stroke-miterlimit="10"/>
<path d="M16.5001 16.4996C10.2582 23.7866 1 15.9023 1 15.9023" stroke="#242B3A" stroke-miterlimit="10"/>
<path d="M16.5002 16.5C19.6957 25.5491 8.22754 29.6108 8.22754 29.6108" stroke="#242B3A" stroke-miterlimit="10"/>
</svg>
