<svg width="74" height="74" viewBox="0 0 74 74" fill="none" xmlns="http://www.w3.org/2000/svg">
<g filter="url(#filter0_i_144_813)">
<path d="M4.48655 26.9724C-1.0515 32.5104 -1.05151 41.4894 4.48655 47.0274L21.1708 63.7117L42.8568 42.0257C45.6258 39.2567 45.6258 34.7672 42.8568 31.9982L21.1588 10.3002L4.48655 26.9724Z" fill="url(#paint0_linear_144_813)"/>
<path d="M26.1725 5.28638L47.8706 26.9844C53.4086 32.5225 53.4086 41.5014 47.8706 47.0395L26.1846 68.7255L26.9721 69.513C32.5102 75.0511 41.4891 75.0511 47.0272 69.513L69.5128 47.0275C75.0508 41.4894 75.0509 32.5104 69.5128 26.9724L47.0272 4.4868C41.4892 -1.05126 32.5102 -1.05127 26.9721 4.48679L26.1725 5.28638Z" fill="url(#paint1_linear_144_813)"/>
</g>
<defs>
<filter id="filter0_i_144_813" x="-0.666992" y="-1.66675" width="74.333" height="75.3333" filterUnits="userSpaceOnUse" color-interpolation-filters="sRGB">
<feFlood flood-opacity="0" result="BackgroundImageFix"/>
<feBlend mode="normal" in="SourceGraphic" in2="BackgroundImageFix" result="shape"/>
<feColorMatrix in="SourceAlpha" type="matrix" values="0 0 0 0 0 0 0 0 0 0 0 0 0 0 0 0 0 0 127 0" result="hardAlpha"/>
<feMorphology radius="7" operator="dilate" in="SourceAlpha" result="effect1_innerShadow_144_813"/>
<feOffset dx="-1" dy="-2"/>
<feGaussianBlur stdDeviation="7"/>
<feComposite in2="hardAlpha" operator="arithmetic" k2="-1" k3="1"/>
<feColorMatrix type="matrix" values="0 0 0 0 0.24288 0 0 0 0 0.2188 0 0 0 0 0.9412 0 0 0 1 0"/>
<feBlend mode="normal" in2="shape" result="effect1_innerShadow_144_813"/>
</filter>
<linearGradient id="paint0_linear_144_813" x1="11.2371" y1="49.6053" x2="67.762" y2="30.6074" gradientUnits="userSpaceOnUse">
<stop stop-color="#5B55FA"/>
<stop offset="0.536458" stop-color="#4662F5"/>
<stop offset="1" stop-color="#3E38F0"/>
</linearGradient>
<linearGradient id="paint1_linear_144_813" x1="11.2371" y1="49.6053" x2="67.762" y2="30.6074" gradientUnits="userSpaceOnUse">
<stop stop-color="#5B55FA"/>
<stop offset="0.536458" stop-color="#4662F5"/>
<stop offset="1" stop-color="#3E38F0"/>
</linearGradient>
</defs>
</svg>
